<?xml version="1.0" encoding="UTF-8" standalone="no"?>
<!-- Created with Inkscape (http://www.inkscape.org/) -->

<svg
   width="64pt"
   height="64pt"
   viewBox="0 0 22.577777 22.577778"
   version="1.1"
   id="svg215"
   inkscape:version="1.1.2 (b8e25be833, 2022-02-05)"
   sodipodi:docname="drawing.svg"
   xmlns:inkscape="http://www.inkscape.org/namespaces/inkscape"
   xmlns:sodipodi="http://sodipodi.sourceforge.net/DTD/sodipodi-0.dtd"
   xmlns="http://www.w3.org/2000/svg"
   xmlns:svg="http://www.w3.org/2000/svg">
  <sodipodi:namedview
     id="namedview217"
     pagecolor="#ffffff"
     bordercolor="#666666"
     borderopacity="1.0"
     inkscape:pageshadow="2"
     inkscape:pageopacity="0.0"
     inkscape:pagecheckerboard="0"
     inkscape:document-units="pt"
     showgrid="false"
     inkscape:zoom="1.5990853"
     inkscape:cx="100.36988"
     inkscape:cy="136.64062"
     inkscape:window-width="1368"
     inkscape:window-height="850"
     inkscape:window-x="-6"
     inkscape:window-y="-6"
     inkscape:window-maximized="1"
     inkscape:current-layer="layer1"
     units="pt" />
  <defs
     id="defs212">
    <linearGradient
       id="paint0_linear"
       x1="17"
       y1="0"
       x2="17"
       y2="34"
       gradientUnits="userSpaceOnUse"
       gradientTransform="matrix(0.63929968,0,0,0.64903257,0.62283724,0.1928608)">
      <stop
         stop-color="#534BB1"
         id="stop20" />
      <stop
         offset="1"
         stop-color="#551BF9"
         id="stop22" />
    </linearGradient>
    <linearGradient
       id="paint1_linear"
       x1="17.3617"
       y1="6.1489301"
       x2="17.3617"
       y2="28.574499"
       gradientUnits="userSpaceOnUse"
       gradientTransform="matrix(0.63929968,0,0,0.64903257,0.62283724,0.1928608)">
      <stop
         stop-color="white"
         id="stop25" />
      <stop
         offset="1"
         stop-color="white"
         stop-opacity="0.82"
         id="stop27" />
    </linearGradient>
  </defs>
  <g
     inkscape:label="Layer 1"
     inkscape:groupmode="layer"
     id="layer1">
    <ellipse
       cx="11.490933"
       cy="11.226411"
       fill="url(#paint0_linear)"
       id="circle16"
       style="fill:url(#paint0_linear);stroke-width:0.644147"
       rx="10.868094"
       ry="11.033554" />
    <path
       d="M 19.271337,11.360827 H 17.35542 c 0,-3.9639009 -3.176232,-7.1771113 -7.094627,-7.1771113 -3.8698408,0 -7.0160772,3.1345489 -7.0930807,7.0305623 -0.079664,4.027245 3.6552075,7.524363 7.6366767,7.524363 h 0.500826 c 3.51014,0 8.21481,-2.779742 8.949877,-6.166654 0.135721,-0.624303 -0.351743,-1.21116 -0.983755,-1.21116 z M 7.4136714,11.537421 c 0,0.530065 -0.4285752,0.963617 -0.9525634,0.963617 -0.5239954,0 -0.952544,-0.433749 -0.952544,-0.963617 V 9.9785091 c 0,-0.5300644 0.4285486,-0.963619 0.952544,-0.963619 0.5239882,0 0.9525634,0.4335546 0.9525634,0.963619 z m 3.3076076,0 c 0,0.530065 -0.428522,0.963617 -0.9524928,0.963617 -0.5240341,0 -0.9525561,-0.433749 -0.9525561,-0.963617 V 9.9785091 c 0,-0.5300644 0.4287153,-0.963619 0.9525561,-0.963619 0.5239708,0 0.9524928,0.4335546 0.9524928,0.963619 z"
       fill="url(#paint1_linear)"
       id="path18"
       style="fill:url(#paint1_linear);stroke-width:0.644147" />
  </g>
</svg>
