<svg width="45" height="40" viewBox="0 0 45 40" fill="none" xmlns="http://www.w3.org/2000/svg">
<path d="M21.2705 13C22.2529 13 23.2158 13.2745 24.0505 13.7926C24.8852 14.3108 25.5585 15.0519 25.9944 15.9323C26.4302 16.8128 26.6113 17.7975 26.5172 18.7754C26.4231 19.7533 26.0575 20.6855 25.4618 21.4667L28.795 24.8012C28.921 24.9276 28.9942 25.0973 28.9997 25.2758C29.0051 25.4543 28.9424 25.6281 28.8243 25.762C28.7063 25.8959 28.5416 25.9799 28.3639 25.9968C28.1861 26.0138 28.0086 25.9624 27.8674 25.8532L27.8013 25.7949L24.4667 22.4617C23.8011 22.9692 23.0243 23.3109 22.2005 23.4585C21.3768 23.6061 20.5296 23.5555 19.7293 23.3107C18.929 23.066 18.1984 22.6342 17.5981 22.051C16.9978 21.4679 16.545 20.7502 16.2772 19.9573C16.0094 19.1644 15.9342 18.3192 16.0579 17.4915C16.1816 16.6638 16.5007 15.8774 16.9887 15.1975C17.4766 14.5176 18.1195 13.9636 18.8641 13.5815C19.6087 13.1994 20.4336 13 21.2705 13ZM21.2705 14.4055C20.2454 14.4055 19.2622 14.8127 18.5374 15.5375C17.8125 16.2624 17.4053 17.2455 17.4053 18.2706C17.4053 19.2957 17.8125 20.2788 18.5374 21.0036C19.2622 21.7285 20.2454 22.1357 21.2705 22.1357C22.2956 22.1357 23.2787 21.7285 24.0036 21.0036C24.7285 20.2788 25.1357 19.2957 25.1357 18.2706C25.1357 17.2455 24.7285 16.2624 24.0036 15.5375C23.2787 14.8127 22.2956 14.4055 21.2705 14.4055Z" fill="black"/>
<path opacity="0.3" d="M35 19.5C35 26.4036 29.4036 32 22.5 32C15.5964 32 10 26.4036 10 19.5C10 12.5964 15.5964 7 22.5 7C29.4036 7 35 12.5964 35 19.5ZM11.75 19.5C11.75 25.4371 16.5629 30.25 22.5 30.25C28.4371 30.25 33.25 25.4371 33.25 19.5C33.25 13.5629 28.4371 8.75 22.5 8.75C16.5629 8.75 11.75 13.5629 11.75 19.5Z" fill="black" fill-opacity="0.05"/>
</svg>
