<svg width="120" height="155" viewBox="0 0 120 155" fill="none" xmlns="http://www.w3.org/2000/svg">
  <g filter="url(#filter0_ddddii_5538_105229)">
    <path
      d="M57.0352 101.144C59.5403 98.9657 63.332 99.209 65.5381 101.69L72.4325 109.442C74.7403 112.038 74.4261 116.031 71.741 118.234C69.1835 120.331 65.4217 120.015 63.2504 117.52L56.4402 109.693C54.2433 107.168 54.5097 103.34 57.0352 101.144ZM84.606 63.5606L82.7766 75.8217C82.1146 80.1389 81.0344 84.332 79.5361 88.4014C78.0378 92.4353 76.0343 96.0624 73.5255 99.2825C71.0167 102.467 67.9678 104.98 64.3789 106.82C60.7899 108.66 56.5737 109.526 51.7304 109.421C47.1309 109.314 43.3328 108.288 40.3362 106.342C37.3745 104.36 35.0747 101.76 33.437 98.5394C31.7994 95.2839 30.754 91.6923 30.3011 87.7644C29.8829 83.8366 29.9003 79.8735 30.3533 75.8749L32.1827 63.5606C32.8447 59.2789 33.9249 55.1211 35.4232 51.0871C36.9564 47.0532 38.9773 43.4261 41.4861 40.206C44.0298 36.9859 47.1135 34.4558 50.7373 32.6158C54.3611 30.7403 58.5598 29.8734 63.3336 30.0149C67.8981 30.0857 71.6788 31.1119 74.6754 33.0935C77.672 35.0751 79.9891 37.6936 81.6268 40.9491C83.2645 44.1692 84.2924 47.7431 84.7105 51.671C85.1286 55.5988 85.0938 59.562 84.606 63.5606ZM69.2919 75.8749L71.069 63.3483C71.3129 61.4021 71.4871 59.2436 71.5916 56.8727C71.6962 54.4665 71.522 52.1487 71.069 49.9194C70.616 47.6901 69.71 45.8323 68.3511 44.3461C67.027 42.8599 65.0409 42.0637 62.3927 41.9576C59.4309 41.816 56.957 42.3999 54.9709 43.7092C53.0196 45.0185 51.4342 46.77 50.2146 48.964C48.9951 51.1579 48.0368 53.5287 47.3399 56.0765C46.6431 58.6243 46.1204 61.0836 45.772 63.4544L44.0472 75.9279C43.8033 77.8742 43.6116 80.068 43.4722 82.5097C43.3677 84.9159 43.5419 87.2513 43.9949 89.516C44.4479 91.7454 45.3364 93.6208 46.6605 95.1424C48.0194 96.6286 50.0404 97.4248 52.7234 97.5309C55.6504 97.6725 58.0894 97.0886 60.0407 95.7793C62.0269 94.4701 63.6297 92.7185 64.8493 90.5245C66.1037 88.2953 67.0619 85.9067 67.7239 83.3589C68.4208 80.7758 68.9435 78.2811 69.2919 75.8749Z"
      fill="url(#paint0_linear_5538_105229)"/>
    <path
      d="M57.0352 101.144C59.5403 98.9657 63.332 99.209 65.5381 101.69L72.4325 109.442C74.7403 112.038 74.4261 116.031 71.741 118.234C69.1835 120.331 65.4217 120.015 63.2504 117.52L56.4402 109.693C54.2433 107.168 54.5097 103.34 57.0352 101.144ZM84.606 63.5606L82.7766 75.8217C82.1146 80.1389 81.0344 84.332 79.5361 88.4014C78.0378 92.4353 76.0343 96.0624 73.5255 99.2825C71.0167 102.467 67.9678 104.98 64.3789 106.82C60.7899 108.66 56.5737 109.526 51.7304 109.421C47.1309 109.314 43.3328 108.288 40.3362 106.342C37.3745 104.36 35.0747 101.76 33.437 98.5394C31.7994 95.2839 30.754 91.6923 30.3011 87.7644C29.8829 83.8366 29.9003 79.8735 30.3533 75.8749L32.1827 63.5606C32.8447 59.2789 33.9249 55.1211 35.4232 51.0871C36.9564 47.0532 38.9773 43.4261 41.4861 40.206C44.0298 36.9859 47.1135 34.4558 50.7373 32.6158C54.3611 30.7403 58.5598 29.8734 63.3336 30.0149C67.8981 30.0857 71.6788 31.1119 74.6754 33.0935C77.672 35.0751 79.9891 37.6936 81.6268 40.9491C83.2645 44.1692 84.2924 47.7431 84.7105 51.671C85.1286 55.5988 85.0938 59.562 84.606 63.5606ZM69.2919 75.8749L71.069 63.3483C71.3129 61.4021 71.4871 59.2436 71.5916 56.8727C71.6962 54.4665 71.522 52.1487 71.069 49.9194C70.616 47.6901 69.71 45.8323 68.3511 44.3461C67.027 42.8599 65.0409 42.0637 62.3927 41.9576C59.4309 41.816 56.957 42.3999 54.9709 43.7092C53.0196 45.0185 51.4342 46.77 50.2146 48.964C48.9951 51.1579 48.0368 53.5287 47.3399 56.0765C46.6431 58.6243 46.1204 61.0836 45.772 63.4544L44.0472 75.9279C43.8033 77.8742 43.6116 80.068 43.4722 82.5097C43.3677 84.9159 43.5419 87.2513 43.9949 89.516C44.4479 91.7454 45.3364 93.6208 46.6605 95.1424C48.0194 96.6286 50.0404 97.4248 52.7234 97.5309C55.6504 97.6725 58.0894 97.0886 60.0407 95.7793C62.0269 94.4701 63.6297 92.7185 64.8493 90.5245C66.1037 88.2953 67.0619 85.9067 67.7239 83.3589C68.4208 80.7758 68.9435 78.2811 69.2919 75.8749Z"
      fill="#005BDA" fill-opacity="0.1"/>
  </g>
  <defs>
    <filter id="filter0_ddddii_5538_105229" x="0" y="0" width="120" height="154.621" filterUnits="userSpaceOnUse"
            color-interpolation-filters="sRGB">
      <feFlood flood-opacity="0" result="BackgroundImageFix"/>
      <feColorMatrix in="SourceAlpha" type="matrix" values="0 0 0 0 0 0 0 0 0 0 0 0 0 0 0 0 0 0 127 0"
                     result="hardAlpha"/>
      <feOffset dx="10" dy="10"/>
      <feGaussianBlur stdDeviation="12.5"/>
      <feColorMatrix type="matrix" values="0 0 0 0 0.898039 0 0 0 0 0.898039 0 0 0 0 0.898039 0 0 0 0.9 0"/>
      <feBlend mode="normal" in2="BackgroundImageFix" result="effect1_dropShadow_5538_105229"/>
      <feColorMatrix in="SourceAlpha" type="matrix" values="0 0 0 0 0 0 0 0 0 0 0 0 0 0 0 0 0 0 127 0"
                     result="hardAlpha"/>
      <feOffset dx="-10" dy="-10"/>
      <feGaussianBlur stdDeviation="10"/>
      <feColorMatrix type="matrix" values="0 0 0 0 1 0 0 0 0 1 0 0 0 0 1 0 0 0 0.9 0"/>
      <feBlend mode="normal" in2="effect1_dropShadow_5538_105229" result="effect2_dropShadow_5538_105229"/>
      <feColorMatrix in="SourceAlpha" type="matrix" values="0 0 0 0 0 0 0 0 0 0 0 0 0 0 0 0 0 0 127 0"
                     result="hardAlpha"/>
      <feOffset dx="10" dy="-10"/>
      <feGaussianBlur stdDeviation="10"/>
      <feColorMatrix type="matrix" values="0 0 0 0 0.898039 0 0 0 0 0.898039 0 0 0 0 0.898039 0 0 0 0.2 0"/>
      <feBlend mode="normal" in2="effect2_dropShadow_5538_105229" result="effect3_dropShadow_5538_105229"/>
      <feColorMatrix in="SourceAlpha" type="matrix" values="0 0 0 0 0 0 0 0 0 0 0 0 0 0 0 0 0 0 127 0"
                     result="hardAlpha"/>
      <feOffset dx="-10" dy="10"/>
      <feGaussianBlur stdDeviation="10"/>
      <feColorMatrix type="matrix" values="0 0 0 0 0.898039 0 0 0 0 0.898039 0 0 0 0 0.898039 0 0 0 0.2 0"/>
      <feBlend mode="normal" in2="effect3_dropShadow_5538_105229" result="effect4_dropShadow_5538_105229"/>
      <feBlend mode="normal" in="SourceGraphic" in2="effect4_dropShadow_5538_105229" result="shape"/>
      <feColorMatrix in="SourceAlpha" type="matrix" values="0 0 0 0 0 0 0 0 0 0 0 0 0 0 0 0 0 0 127 0"
                     result="hardAlpha"/>
      <feOffset dx="-1" dy="-1"/>
      <feGaussianBlur stdDeviation="1"/>
      <feComposite in2="hardAlpha" operator="arithmetic" k2="-1" k3="1"/>
      <feColorMatrix type="matrix" values="0 0 0 0 0.898039 0 0 0 0 0.898039 0 0 0 0 0.898039 0 0 0 0.5 0"/>
      <feBlend mode="normal" in2="shape" result="effect5_innerShadow_5538_105229"/>
      <feColorMatrix in="SourceAlpha" type="matrix" values="0 0 0 0 0 0 0 0 0 0 0 0 0 0 0 0 0 0 127 0"
                     result="hardAlpha"/>
      <feOffset dx="1" dy="1"/>
      <feGaussianBlur stdDeviation="1"/>
      <feComposite in2="hardAlpha" operator="arithmetic" k2="-1" k3="1"/>
      <feColorMatrix type="matrix" values="0 0 0 0 1 0 0 0 0 1 0 0 0 0 1 0 0 0 0.3 0"/>
      <feBlend mode="normal" in2="effect5_innerShadow_5538_105229" result="effect6_innerShadow_5538_105229"/>
    </filter>
    <linearGradient id="paint0_linear_5538_105229" x1="30" y1="30" x2="111.038" y2="78.4463"
                    gradientUnits="userSpaceOnUse">
      <stop stop-color="white"/>
      <stop offset="1" stop-color="#EDEDED"/>
    </linearGradient>
  </defs>
</svg>
