<svg width="45" height="45" viewBox="0 0 45 45" fill="none" xmlns="http://www.w3.org/2000/svg">
<path d="M22.7862 28.2623C29.9105 28.2623 35.6859 22.6072 35.6859 15.6312C35.6859 8.65516 29.9105 3 22.7862 3C15.6619 3 9.88647 8.65516 9.88647 15.6312C9.88647 22.6072 15.6619 28.2623 22.7862 28.2623Z" fill="url(#paint0_linear_4442_126100)"/>
<path d="M14.1849 43.0006C21.3092 43.0006 27.0846 37.3454 27.0846 30.3694C27.0846 23.3934 21.3092 17.7383 14.1849 17.7383C7.06055 17.7383 1.28516 23.3934 1.28516 30.3694C1.28516 37.3454 7.06055 43.0006 14.1849 43.0006Z" fill="url(#paint1_linear_4442_126100)"/>
<path d="M31.386 43.0006C38.5104 43.0006 44.2858 37.3454 44.2858 30.3694C44.2858 23.3934 38.5104 17.7383 31.386 17.7383C24.2617 17.7383 18.4863 23.3934 18.4863 30.3694C18.4863 37.3454 24.2617 43.0006 31.386 43.0006Z" fill="url(#paint2_linear_4442_126100)"/>
<defs>
<linearGradient id="paint0_linear_4442_126100" x1="16.3793" y1="4.97888" x2="28.1177" y2="26.7867" gradientUnits="userSpaceOnUse">
<stop stop-color="#3FE3C8"/>
<stop offset="0.117896" stop-color="#3EE2C8"/>
<stop offset="0.213837" stop-color="#3DDFC9"/>
<stop offset="0.2912" stop-color="#3BD9C9"/>
<stop offset="0.353363" stop-color="#37D3CA"/>
<stop offset="0.403704" stop-color="#34CACB"/>
<stop offset="0.4456" stop-color="#2FC1CD"/>
<stop offset="0.48243" stop-color="#2AB6CE"/>
<stop offset="0.51757" stop-color="#25ABCF"/>
<stop offset="0.5544" stop-color="#209FD1"/>
<stop offset="0.596296" stop-color="#1A93D3"/>
<stop offset="0.646637" stop-color="#1587D4"/>
<stop offset="0.7088" stop-color="#0F7BD6"/>
<stop offset="0.786163" stop-color="#0A70D7"/>
<stop offset="0.882104" stop-color="#0565D9"/>
<stop offset="1" stop-color="#005BDA"/>
</linearGradient>
<linearGradient id="paint1_linear_4442_126100" x1="7.77801" y1="19.7172" x2="19.5164" y2="41.525" gradientUnits="userSpaceOnUse">
<stop stop-color="#3FE3C8"/>
<stop offset="0.117896" stop-color="#3EE2C8"/>
<stop offset="0.213837" stop-color="#3DDFC9"/>
<stop offset="0.2912" stop-color="#3BD9C9"/>
<stop offset="0.353363" stop-color="#37D3CA"/>
<stop offset="0.403704" stop-color="#34CACB"/>
<stop offset="0.4456" stop-color="#2FC1CD"/>
<stop offset="0.48243" stop-color="#2AB6CE"/>
<stop offset="0.51757" stop-color="#25ABCF"/>
<stop offset="0.5544" stop-color="#209FD1"/>
<stop offset="0.596296" stop-color="#1A93D3"/>
<stop offset="0.646637" stop-color="#1587D4"/>
<stop offset="0.7088" stop-color="#0F7BD6"/>
<stop offset="0.786163" stop-color="#0A70D7"/>
<stop offset="0.882104" stop-color="#0565D9"/>
<stop offset="1" stop-color="#005BDA"/>
</linearGradient>
<linearGradient id="paint2_linear_4442_126100" x1="24.9792" y1="19.7172" x2="36.7175" y2="41.525" gradientUnits="userSpaceOnUse">
<stop stop-color="#3FE3C8"/>
<stop offset="0.117896" stop-color="#3EE2C8"/>
<stop offset="0.213837" stop-color="#3DDFC9"/>
<stop offset="0.2912" stop-color="#3BD9C9"/>
<stop offset="0.353363" stop-color="#37D3CA"/>
<stop offset="0.403704" stop-color="#34CACB"/>
<stop offset="0.4456" stop-color="#2FC1CD"/>
<stop offset="0.48243" stop-color="#2AB6CE"/>
<stop offset="0.51757" stop-color="#25ABCF"/>
<stop offset="0.5544" stop-color="#209FD1"/>
<stop offset="0.596296" stop-color="#1A93D3"/>
<stop offset="0.646637" stop-color="#1587D4"/>
<stop offset="0.7088" stop-color="#0F7BD6"/>
<stop offset="0.786163" stop-color="#0A70D7"/>
<stop offset="0.882104" stop-color="#0565D9"/>
<stop offset="1" stop-color="#005BDA"/>
</linearGradient>
</defs>
</svg>
