<svg width="45" height="45" viewBox="0 0 45 45" fill="none" xmlns="http://www.w3.org/2000/svg">
<path fill-rule="evenodd" clip-rule="evenodd" d="M22.5 45C34.9264 45 45 34.9264 45 22.5C45 10.0736 34.9264 0 22.5 0C10.0736 0 0 10.0736 0 22.5C0 34.9264 10.0736 45 22.5 45ZM9 36.6065C5.28687 33.052 2.97457 28.0461 2.97457 22.5C2.97457 11.7164 11.7164 2.97457 22.5 2.97457C33.2836 2.97457 42.0254 11.7164 42.0254 22.5C42.0254 28.0461 39.7131 33.052 36 36.6065V14.9571C36 14.5139 35.8359 14.0887 35.5438 13.7753C35.2516 13.4618 34.8554 13.2857 34.4423 13.2857H32.3654C31.9523 13.2857 31.5561 13.4618 31.2639 13.7753C30.9718 14.0887 30.8077 14.5139 30.8077 14.9571V39.4714V40.175C30.1355 40.4915 29.4423 40.7708 28.7308 41.0102V22.7571C28.7308 22.3139 28.5667 21.8887 28.2745 21.5753C27.9824 21.2618 27.5862 21.0857 27.1731 21.0857H25.0962C24.683 21.0857 24.2868 21.2618 23.9947 21.5753C23.7026 21.8887 23.5385 22.3139 23.5385 22.7571V41.9983C23.1946 42.0163 22.8484 42.0254 22.5 42.0254C22.1516 42.0254 21.8054 42.0163 21.4615 41.9983V9.38571C21.4615 8.94242 21.2974 8.51729 21.0053 8.20384C20.7132 7.89038 20.317 7.71429 19.9038 7.71429H17.8269C17.4138 7.71429 17.0176 7.89038 16.7255 8.20384C16.4333 8.51729 16.2692 8.94242 16.2692 9.38571V41.0102C15.5968 40.7839 14.9408 40.5221 14.3034 40.2268L14.1923 29.4429C14.1923 28.9996 14.0282 28.5744 13.7361 28.261C13.4439 27.9475 13.0477 27.7714 12.6346 27.7714H10.5577C10.1446 27.7714 9.74836 27.9475 9.45624 28.261C9.16411 28.5744 9 28.9996 9 29.4429V36.6065Z" fill="url(#paint0_linear_4442_129399)"/>
<defs>
<linearGradient id="paint0_linear_4442_129399" x1="13.4423" y1="4.56571" x2="44.6328" y2="45.9527" gradientUnits="userSpaceOnUse">
<stop stop-color="#3FE3C8"/>
<stop offset="0.117896" stop-color="#3EE2C8"/>
<stop offset="0.213837" stop-color="#3DDFC9"/>
<stop offset="0.2912" stop-color="#3BD9C9"/>
<stop offset="0.353363" stop-color="#37D3CA"/>
<stop offset="0.403704" stop-color="#34CACB"/>
<stop offset="0.4456" stop-color="#2FC1CD"/>
<stop offset="0.48243" stop-color="#2AB6CE"/>
<stop offset="0.51757" stop-color="#25ABCF"/>
<stop offset="0.5544" stop-color="#209FD1"/>
<stop offset="0.596296" stop-color="#1A93D3"/>
<stop offset="0.646637" stop-color="#1587D4"/>
<stop offset="0.7088" stop-color="#0F7BD6"/>
<stop offset="0.786163" stop-color="#0A70D7"/>
<stop offset="0.882104" stop-color="#0565D9"/>
<stop offset="1" stop-color="#005BDA"/>
</linearGradient>
</defs>
</svg>
