<svg width="45" height="45" viewBox="0 0 45 45" fill="none" xmlns="http://www.w3.org/2000/svg">
<g clip-path="url(#clip0_4442_129298)">
<path fill-rule="evenodd" clip-rule="evenodd" d="M21.3212 10.1606C21.3212 12.745 20.3563 15.1041 18.7671 16.8972L29.9519 26.9633C31.2892 25.7352 33.0116 24.9198 34.9171 24.7189L35.3472 17.4044C30.767 17.1485 27.1317 13.3533 27.1317 8.70909C27.1317 3.89919 31.0309 0 35.8408 0C40.6507 0 44.5499 3.89919 44.5499 8.70909C44.5499 13.0016 41.4444 16.5688 37.3576 17.2866L36.9195 24.7367C41.2204 25.268 44.5499 28.935 44.5499 33.3796C44.5499 38.1895 40.6507 42.0887 35.8408 42.0887C31.4319 42.0887 27.7881 38.8125 27.2113 34.5618L18.3959 35.6637C18.4107 35.8709 18.4182 36.0801 18.4182 36.291C18.4182 41.1009 14.519 45.0001 9.70909 45.0001C4.89919 45.0001 1 41.1009 1 36.291C1 31.4811 4.89919 27.5819 9.70909 27.5819C13.6147 27.5819 16.9199 30.1528 18.0246 33.6946L27.1706 32.5513C27.3123 31.0491 27.8357 29.6578 28.6426 28.4757L17.2938 18.262C15.5894 19.5544 13.4646 20.3212 11.1606 20.3212C5.54906 20.3212 1 15.7722 1 10.1606C1 4.54906 5.54906 0 11.1606 0C16.7722 0 21.3212 4.54906 21.3212 10.1606ZM35.8408 38.9942C32.74 38.9942 30.2263 36.4805 30.2263 33.3796C30.2263 30.2788 32.74 27.7651 35.8408 27.7651C38.9417 27.7651 41.4554 30.2788 41.4554 33.3796C41.4554 36.4805 38.9417 38.9942 35.8408 38.9942Z" fill="url(#paint0_linear_4442_129298)"/>
</g>
<defs>
<linearGradient id="paint0_linear_4442_129298" x1="11.9601" y1="3.52501" x2="33.4763" y2="41.4049" gradientUnits="userSpaceOnUse">
<stop stop-color="#3FE3C8"/>
<stop offset="0.117896" stop-color="#3EE2C8"/>
<stop offset="0.213837" stop-color="#3DDFC9"/>
<stop offset="0.2912" stop-color="#3BD9C9"/>
<stop offset="0.353363" stop-color="#37D3CA"/>
<stop offset="0.403704" stop-color="#34CACB"/>
<stop offset="0.4456" stop-color="#2FC1CD"/>
<stop offset="0.48243" stop-color="#2AB6CE"/>
<stop offset="0.51757" stop-color="#25ABCF"/>
<stop offset="0.5544" stop-color="#209FD1"/>
<stop offset="0.596296" stop-color="#1A93D3"/>
<stop offset="0.646637" stop-color="#1587D4"/>
<stop offset="0.7088" stop-color="#0F7BD6"/>
<stop offset="0.786163" stop-color="#0A70D7"/>
<stop offset="0.882104" stop-color="#0565D9"/>
<stop offset="1" stop-color="#005BDA"/>
</linearGradient>
<clipPath id="clip0_4442_129298">
<rect width="45" height="45" fill="white"/>
</clipPath>
</defs>
</svg>
