<svg width="45" height="45" viewBox="0 0 45 45" fill="none" xmlns="http://www.w3.org/2000/svg">
<path d="M38.9222 24.1634C40.1316 22.8829 41.0637 21.3661 41.6601 19.708C42.2565 18.05 42.5045 16.2865 42.3884 14.5281C42.2722 12.7697 41.7946 11.0542 40.9853 9.48924C40.176 7.92427 39.0526 6.54353 37.6854 5.43357C36.3182 4.3236 34.7367 3.50833 33.0401 3.03887C31.3435 2.56941 29.5683 2.45587 27.8258 2.70537C26.0833 2.95487 24.411 3.56202 22.9139 4.48879C21.4167 5.41555 20.1269 6.64194 19.1253 8.09109C18.6414 6.80792 17.8558 5.6604 16.8349 4.7457C15.8141 3.83099 14.5881 3.17604 13.2608 2.83631C11.9335 2.49657 10.544 2.48206 9.20995 2.794C7.87588 3.10594 6.63653 3.73515 5.59686 4.62833C4.55719 5.52152 3.74782 6.65238 3.23729 7.92516C2.72676 9.19793 2.53011 10.5751 2.66398 11.9401C2.79785 13.3051 3.25831 14.6178 4.00636 15.7668C4.75441 16.9159 5.76802 17.8675 6.96136 18.5412C5.86732 19.279 4.93079 20.2274 4.20628 21.331C3.48176 22.4346 2.98373 23.6715 2.74116 24.9696C2.49859 26.2677 2.51634 27.6012 2.79337 28.8924C3.07039 30.1836 3.60116 31.4068 4.35479 32.4907C5.10842 33.5746 6.06985 34.4976 7.18314 35.206C8.29642 35.9144 9.53932 36.394 10.8395 36.617C12.1397 36.84 13.4712 36.8019 14.7565 36.5048C16.0418 36.2078 17.2553 35.6577 18.3263 34.8868C18.5803 37.0504 19.6508 39.035 21.3188 40.4341C22.9867 41.8332 25.1258 42.541 27.298 42.4126C29.4702 42.2842 31.5112 41.3292 33.003 39.7433C34.4949 38.1573 35.3247 36.0604 35.3225 33.8819C35.3225 33.7082 35.3069 33.5403 35.2969 33.3695C35.9114 33.6697 36.5813 33.8395 37.2645 33.868C37.9477 33.8966 38.6294 33.7833 39.2667 33.5354C39.9041 33.2874 40.4833 32.9102 40.968 32.4273C41.4527 31.9444 41.8324 31.3664 42.0832 30.7295C42.334 30.0927 42.4505 29.4108 42.4253 28.7266C42.4002 28.0425 42.2339 27.371 41.9371 26.7543C41.6402 26.1377 41.2191 25.5891 40.7003 25.1432C40.1814 24.6973 39.5761 24.3637 38.9222 24.1634ZM29.6358 5.41522C31.6041 5.41522 33.5281 5.99956 35.1647 7.09434C36.8013 8.18913 38.0768 9.74519 38.83 11.5657C39.5833 13.3863 39.7803 15.3896 39.3963 17.3223C39.0124 19.255 38.0645 21.0303 36.6728 22.4237C35.281 23.8171 33.5077 24.766 31.5773 25.1504C29.6468 25.5349 27.6459 25.3376 25.8274 24.5835C24.009 23.8294 22.4547 22.5523 21.3612 20.9139C20.2677 19.2754 19.684 17.3491 19.684 15.3786C19.687 12.737 20.7365 10.2046 22.6021 8.33674C24.4678 6.46891 26.9973 5.41823 29.6358 5.41522ZM11.1539 5.41522C12.2786 5.41522 13.3781 5.74913 14.3133 6.37472C15.2485 7.00031 15.9773 7.88949 16.4078 8.92981C16.8382 9.97013 16.9508 11.1149 16.7314 12.2193C16.5119 13.3237 15.9703 14.3381 15.175 15.1343C14.3797 15.9306 13.3665 16.4728 12.2633 16.6925C11.1602 16.9122 10.0168 16.7994 8.97769 16.3685C7.93857 15.9376 7.05043 15.2079 6.42556 14.2716C5.80069 13.3353 5.46717 12.2346 5.46717 11.1086C5.46905 9.59916 6.06879 8.15214 7.13486 7.08484C8.20092 6.01754 9.64627 5.4171 11.1539 5.41522ZM26.7924 39.5752C25.6677 39.5752 24.5682 39.2413 23.633 38.6157C22.6979 37.9901 21.969 37.1009 21.5386 36.0606C21.1081 35.0203 20.9955 33.8756 21.215 32.7712C21.4344 31.6668 21.976 30.6523 22.7713 29.8561C23.5666 29.0599 24.5799 28.5176 25.683 28.2979C26.7861 28.0783 27.9295 28.191 28.9686 28.6219C30.0078 29.0528 30.8959 29.7826 31.5208 30.7188C32.1456 31.6551 32.4792 32.7558 32.4792 33.8819C32.4773 35.3913 31.8775 36.8383 30.8115 37.9056C29.7454 38.9729 28.3001 39.5733 26.7924 39.5752Z" fill="url(#paint0_linear_4442_129314)"/>
<defs>
<linearGradient id="paint0_linear_4442_129314" x1="12.6022" y1="5.69246" x2="31.3351" y2="39.7703" gradientUnits="userSpaceOnUse">
<stop stop-color="#3FE3C8"/>
<stop offset="0.117896" stop-color="#3EE2C8"/>
<stop offset="0.213837" stop-color="#3DDFC9"/>
<stop offset="0.2912" stop-color="#3BD9C9"/>
<stop offset="0.353363" stop-color="#37D3CA"/>
<stop offset="0.403704" stop-color="#34CACB"/>
<stop offset="0.4456" stop-color="#2FC1CD"/>
<stop offset="0.48243" stop-color="#2AB6CE"/>
<stop offset="0.51757" stop-color="#25ABCF"/>
<stop offset="0.5544" stop-color="#209FD1"/>
<stop offset="0.596296" stop-color="#1A93D3"/>
<stop offset="0.646637" stop-color="#1587D4"/>
<stop offset="0.7088" stop-color="#0F7BD6"/>
<stop offset="0.786163" stop-color="#0A70D7"/>
<stop offset="0.882104" stop-color="#0565D9"/>
<stop offset="1" stop-color="#005BDA"/>
</linearGradient>
</defs>
</svg>
