<svg width="45" height="45" viewBox="0 0 45 45" fill="none" xmlns="http://www.w3.org/2000/svg">
<path d="M32.5715 30.9852C34.2765 30.9852 35.9116 31.6557 37.1172 32.8492C38.3228 34.0427 39.0001 35.6615 39.0001 37.3494C39.0001 39.0374 38.3228 40.6561 37.1172 41.8497C35.9116 43.0432 34.2765 43.7137 32.5715 43.7137C30.8666 43.7137 29.2314 43.0432 28.0258 41.8497C26.8203 40.6561 26.143 39.0374 26.143 37.3494C26.143 35.6615 26.8203 34.0427 28.0258 32.8492C29.2314 31.6557 30.8666 30.9852 32.5715 30.9852ZM11.143 22.4994C15.8787 22.4994 19.7144 26.2968 19.7144 30.9852C19.7144 35.6735 15.8787 39.4709 11.143 39.4709C6.40725 39.4709 2.57153 35.6735 2.57153 30.9852C2.57153 26.2968 6.40725 22.4994 11.143 22.4994ZM29.3572 1.28516C32.483 1.28516 35.4808 2.51445 37.691 4.70259C39.9013 6.89074 41.143 9.85851 41.143 12.953C41.143 16.0475 39.9013 19.0153 37.691 21.2034C35.4808 23.3916 32.483 24.6209 29.3572 24.6209C26.2315 24.6209 23.2337 23.3916 21.0235 21.2034C18.8132 19.0153 17.5715 16.0475 17.5715 12.953C17.5715 9.85851 18.8132 6.89074 21.0235 4.70259C23.2337 2.51445 26.2315 1.28516 29.3572 1.28516Z" fill="url(#paint0_linear_4442_129368)"/>
<defs>
<linearGradient id="paint0_linear_4442_129368" x1="12.2787" y1="4.60873" x2="33.195" y2="39.1995" gradientUnits="userSpaceOnUse">
<stop stop-color="#3FE3C8"/>
<stop offset="0.117896" stop-color="#3EE2C8"/>
<stop offset="0.213837" stop-color="#3DDFC9"/>
<stop offset="0.2912" stop-color="#3BD9C9"/>
<stop offset="0.353363" stop-color="#37D3CA"/>
<stop offset="0.403704" stop-color="#34CACB"/>
<stop offset="0.4456" stop-color="#2FC1CD"/>
<stop offset="0.48243" stop-color="#2AB6CE"/>
<stop offset="0.51757" stop-color="#25ABCF"/>
<stop offset="0.5544" stop-color="#209FD1"/>
<stop offset="0.596296" stop-color="#1A93D3"/>
<stop offset="0.646637" stop-color="#1587D4"/>
<stop offset="0.7088" stop-color="#0F7BD6"/>
<stop offset="0.786163" stop-color="#0A70D7"/>
<stop offset="0.882104" stop-color="#0565D9"/>
<stop offset="1" stop-color="#005BDA"/>
</linearGradient>
</defs>
</svg>
