<svg width="14" height="14" viewBox="0 0 14 14" fill="none" xmlns="http://www.w3.org/2000/svg">
<path d="M5.6875 3.88672V4.62609H13.9923C13.9808 4.38766 13.9558 4.08622 13.8666 3.88672" fill="#DB5461"/>
<path d="M13.475 3.14453H5.6875V3.88391H13.8666C13.7777 3.60806 13.6456 3.3565 13.475 3.14453Z" fill="#E6E7E8"/>
<path d="M11.8125 2.40625H5.6875V3.14563H13.475C13.1099 2.68844 12.509 2.40625 11.8125 2.40625Z" fill="#DB5461"/>
<path d="M13.9923 4.625H5.6875V5.36438H14V4.87153C14 4.82756 13.9972 4.78469 13.9958 4.74159C13.995 4.72978 13.9937 4.69937 13.9923 4.625Z" fill="#E6E7E8"/>
<path d="M5.6875 6.10266H14V5.36328H5.6875V6.10266Z" fill="#DB5461"/>
<path d="M5.6875 6.84094H14V6.10156H5.6875V6.84094Z" fill="#E6E7E8"/>
<path d="M5.6875 6.84375H14V7.58312H5.6875V6.84375Z" fill="#DB5461"/>
<path d="M0 7.58203V8.32141H14V7.58203H5.6875H0Z" fill="#E6E7E8"/>
<path d="M0 8.32031H14V9.05969H0V8.32031Z" fill="#DB5461"/>
<path d="M0.00109375 9.51728C0.00109375 9.51728 -0.000875 9.69644 0.004375 9.80188H13.9956C14.0017 9.69381 13.9989 9.51728 13.9989 9.51728L14 9.0625H0L0.00109375 9.51728Z" fill="#E6E7E8"/>
<path d="M2.18758 12.0298H11.8126C12.511 12.0298 13.0916 11.7761 13.4882 11.2773H0.509766C0.919266 11.787 1.51077 12.0298 2.18648 12.0298" fill="#DB5461"/>
<path d="M0.510762 11.2784H13.4892C13.6622 11.0586 13.7914 10.8076 13.8698 10.5391H0.132324C0.212189 10.8068 0.340862 11.0575 0.511855 11.2784" fill="#E6E7E8"/>
<path d="M0.13127 10.5402H13.8688C13.9404 10.2996 13.983 10.0514 13.9956 9.80078H0.00439453C0.0260508 10.0537 0.0461758 10.2446 0.13127 10.5402Z" fill="#DB5461"/>
<path d="M5.6875 2.40625H2.1875C0.737844 2.40625 0 3.48359 0 4.8125V7.58187H5.6875V2.40625Z" fill="#005BDA"/>
<path d="M0.612076 3.71269L0.731076 3.62125L0.849857 3.71269L0.803701 3.56569L0.922045 3.47578H0.77592L0.730639 3.32812L0.685576 3.47578H0.53967L0.658451 3.56569L0.612076 3.71269ZM1.39826 3.71269L1.51726 3.62125L1.63605 3.71269L1.59011 3.56569L1.70823 3.47578H1.56233L1.51705 3.32812L1.47198 3.47578H1.32564L1.44442 3.56569L1.39826 3.71269ZM2.26561 3.71269L2.38439 3.62125L2.50339 3.71269L2.45723 3.56569L2.57536 3.47578H2.43033L2.38439 3.32812L2.33911 3.47578H2.19408L2.31155 3.56569L2.26561 3.71269ZM3.12661 3.71269L3.24539 3.62125L3.36439 3.71269L3.31845 3.56569L3.43658 3.47578H3.29001L3.24539 3.32812L3.20033 3.47578H3.0542L3.17276 3.56569L3.12661 3.71269ZM3.99067 3.71269L4.10967 3.62125L4.22845 3.71269L4.18251 3.56569L4.30086 3.47578H4.15451L4.10945 3.32812L4.06439 3.47578H3.91848L4.03661 3.56569L3.99067 3.71269ZM1.03054 4.09659L1.14933 4.00537L1.26811 4.09659L1.22239 3.94981L1.34051 3.85991H1.19439L1.14911 3.71247L1.1047 3.85991H0.958139L1.07648 3.94981L1.03054 4.09659ZM1.81695 4.09659L1.93573 4.00537L2.05451 4.09659L2.00858 3.94981L2.1267 3.85991H1.9797L1.93573 3.71247L1.89045 3.85991H1.74455L1.86289 3.94981L1.81695 4.09659ZM2.6843 4.09659L2.80286 4.00537L2.92164 4.09659L2.8757 3.94981L2.99405 3.85991H2.84814L2.80286 3.71247L2.75758 3.85991H2.61145L2.7298 3.94981L2.6843 4.09659ZM3.54486 4.09659L3.66386 4.00537L3.78286 4.09659L3.73626 3.94981L3.85483 3.85991H3.70892L3.66364 3.71247L3.6188 3.85991H3.47267L3.59101 3.94981L3.54486 4.09659ZM4.41001 4.09659L4.52792 4.00537L4.6467 4.09659L4.60033 3.94981L4.71889 3.85991H4.5732L4.5277 3.71247L4.48286 3.85991H4.33673L4.45508 3.94981L4.41001 4.09659ZM4.89717 3.71269L5.01595 3.62125L5.13495 3.71269L5.0888 3.56569L5.20692 3.47578H5.06189L5.01573 3.32812L4.97067 3.47578H4.82345L4.94311 3.56569L4.89717 3.71269ZM0.600482 6.78481L0.719482 6.69447L0.838264 6.78481L0.792326 6.63912L0.910451 6.549L0.764545 6.54944L0.719045 6.402L0.67442 6.54944L0.528076 6.549L0.64642 6.63912L0.600482 6.78481ZM1.38689 6.78481L1.50567 6.69447L1.62467 6.78481L1.57851 6.63912L1.69664 6.549L1.55095 6.54944L1.50545 6.402L1.46061 6.54944L1.3147 6.549L1.43283 6.63912L1.38689 6.78481ZM2.25423 6.78481L2.37301 6.69447L2.49201 6.78481L2.44586 6.63912L2.56398 6.549L2.4172 6.54944L2.3728 6.402L2.32773 6.54944L2.18183 6.549L2.30017 6.63912L2.25423 6.78481ZM3.11523 6.78481L3.23401 6.69447L3.3528 6.78481L3.30751 6.63912L3.42498 6.549L3.27886 6.54944L3.2338 6.402L3.18873 6.54944L3.04283 6.549L3.16095 6.63912L3.11523 6.78481ZM3.97908 6.78481L4.09808 6.69447L4.21708 6.78481L4.17158 6.63912L4.28905 6.549L4.14314 6.54944L4.09786 6.402L4.05301 6.54944L3.90689 6.549L4.02501 6.63912L3.97908 6.78481ZM4.88558 6.78481L5.00436 6.69447L5.12336 6.78481L5.0772 6.63912L5.19555 6.549L5.04876 6.54944L5.00414 6.402L4.95908 6.54944L4.81251 6.549L4.93151 6.63912L4.88558 6.78481ZM0.612076 4.48094L0.731076 4.3895L0.849857 4.48094L0.803701 4.33394L0.922045 4.24403L0.77592 4.24447L0.730639 4.09659L0.685576 4.24447L0.53967 4.24403L0.658451 4.33394L0.612076 4.48094ZM1.39826 4.48094L1.51726 4.3895L1.63605 4.48094L1.59011 4.33394L1.70823 4.24403L1.56233 4.24447L1.51705 4.09659L1.47198 4.24447L1.32564 4.24403L1.44442 4.33394L1.39826 4.48094ZM2.26561 4.48094L2.38439 4.3895L2.50339 4.48094L2.45723 4.33394L2.57536 4.24403L2.43033 4.24447L2.38439 4.09659L2.33911 4.24447L2.19408 4.24403L2.31155 4.33394L2.26561 4.48094ZM3.12661 4.48094L3.24539 4.3895L3.36439 4.48094L3.31845 4.33394L3.43658 4.24403L3.29001 4.24447L3.24539 4.09659L3.20033 4.24447L3.0542 4.24403L3.17276 4.33394L3.12661 4.48094ZM3.99067 4.48094L4.10967 4.3895L4.22845 4.48094L4.18251 4.33394L4.30086 4.24403L4.15451 4.24447L4.10945 4.09659L4.06439 4.24447L3.91848 4.24403L4.03661 4.33394L3.99067 4.48094ZM1.03054 4.86506L1.14933 4.77384L1.26811 4.86506L1.22239 4.71828L1.34051 4.62794H1.19439L1.14911 4.48094L1.1047 4.62794H0.958139L1.07648 4.71828L1.03054 4.86506ZM1.81695 4.86506L1.93573 4.77384L2.05451 4.86506L2.00858 4.71828L2.1267 4.62794H1.9797L1.93573 4.48094L1.89045 4.62794H1.74455L1.86289 4.71828L1.81695 4.86506ZM2.6843 4.86506L2.80286 4.77384L2.92164 4.86506L2.8757 4.71828L2.99405 4.62794H2.84814L2.80286 4.48094L2.75758 4.62794H2.61145L2.7298 4.71828L2.6843 4.86506ZM3.54486 4.86506L3.66386 4.77384L3.78286 4.86506L3.73626 4.71828L3.85483 4.62794H3.70892L3.66364 4.48094L3.6188 4.62794H3.47267L3.59101 4.71828L3.54486 4.86506ZM4.41001 4.86506L4.52792 4.77384L4.6467 4.86506L4.60033 4.71828L4.71889 4.62794H4.5732L4.5277 4.48094L4.48286 4.62794H4.33673L4.45508 4.71828L4.41001 4.86506ZM4.89717 4.48094L5.01595 4.3895L5.13495 4.48094L5.0888 4.33394L5.20692 4.24403L5.06189 4.24447L5.01573 4.09659L4.97067 4.24447L4.82345 4.24403L4.94311 4.33394L4.89717 4.48094ZM0.600482 5.24919L0.719482 5.15797L0.838264 5.24919L0.792107 5.10262L0.910451 5.0125L0.764326 5.01294L0.719045 4.86506L0.67442 5.01294L0.528076 5.0125L0.64642 5.10262L0.600482 5.24919ZM1.38689 5.24919L1.50567 5.15797L1.62467 5.24919L1.57851 5.10262L1.69664 5.0125L1.55095 5.01294L1.50545 4.86506L1.46061 5.01294L1.3147 5.0125L1.43261 5.10262L1.38689 5.24919ZM2.25423 5.24919L2.37301 5.15797L2.4918 5.24919L2.44586 5.10262L2.56398 5.0125L2.4172 5.01294L2.3728 4.86506L2.32773 5.01294L2.18183 5.0125L2.30017 5.10262L2.25423 5.24919ZM3.11523 5.24919L3.2338 5.15797L3.3528 5.24919L3.30751 5.10262L3.42498 5.0125L3.27886 5.01294L3.2338 4.86506L3.18873 5.01294L3.04283 5.0125L3.16095 5.10262L3.11523 5.24919ZM3.97908 5.24919L4.09808 5.15797L4.21686 5.24919L4.17158 5.10262L4.28905 5.0125L4.14292 5.01294L4.09786 4.86506L4.05301 5.01294L3.90689 5.0125L4.02501 5.10262L3.97908 5.24919ZM1.01895 5.63331L1.13773 5.54231L1.25651 5.63331L1.21079 5.48762L1.3287 5.39706H1.18258L1.13751 5.24919L1.09267 5.39706H0.946545L1.06489 5.48762L1.01895 5.63331ZM1.80536 5.63331L1.92414 5.54231L2.04292 5.63331L1.99698 5.48762L2.11511 5.39706H1.96876L1.92392 5.24919L1.87886 5.39706H1.73273L1.8513 5.48762L1.80536 5.63331ZM2.67292 5.63331L2.79126 5.54231L2.91026 5.63331L2.86345 5.48762L2.98245 5.39706H2.83655L2.79126 5.24919L2.7462 5.39706H2.60008L2.71842 5.48762L2.67292 5.63331ZM3.53283 5.63331L3.65226 5.54231L3.77126 5.63331L3.72533 5.48762L3.84323 5.39706H3.69733L3.65205 5.24919L3.6072 5.39706H3.46108L3.57942 5.48762L3.53283 5.63331ZM4.39689 5.63331L4.51633 5.54231L4.63533 5.63331L4.58917 5.48762L4.70773 5.39706H4.56183L4.51633 5.24919L4.47126 5.39706H4.32514L4.44348 5.48762L4.39689 5.63331ZM4.88558 5.24919L5.00436 5.15797L5.12314 5.24919L5.0772 5.10262L5.19555 5.0125L5.04876 5.01294L5.00414 4.86506L4.95908 5.01294L4.81251 5.0125L4.93151 5.10262L4.88558 5.24919ZM0.600482 6.01766L0.719482 5.92731L0.838264 6.01766L0.792107 5.87087L0.910451 5.78075L0.764326 5.78119L0.719045 5.63331L0.67442 5.78119L0.528076 5.78075L0.64642 5.87087L0.600482 6.01766ZM1.38689 6.01766L1.50567 5.92731L1.62467 6.01766L1.57851 5.87087L1.69664 5.78075L1.55095 5.78119L1.50545 5.63331L1.46061 5.78119L1.3147 5.78075L1.43261 5.87087L1.38689 6.01766ZM2.25423 6.01766L2.37301 5.92731L2.4918 6.01766L2.44586 5.87087L2.56398 5.78075L2.4172 5.78119L2.3728 5.63331L2.32773 5.78119L2.18183 5.78075L2.30017 5.87087L2.25423 6.01766ZM3.11523 6.01766L3.2338 5.92731L3.3528 6.01766L3.30751 5.87087L3.42498 5.78075L3.27886 5.78119L3.2338 5.63331L3.18873 5.78119L3.04283 5.78075L3.16095 5.87087L3.11523 6.01766ZM3.97908 6.01766L4.09808 5.92731L4.21686 6.01766L4.17158 5.87087L4.28905 5.78075L4.14292 5.78119L4.09786 5.63331L4.05301 5.78119L3.90689 5.78075L4.02501 5.87087L3.97908 6.01766ZM1.01895 6.402L1.13773 6.31056L1.25651 6.402L1.21079 6.255L1.3287 6.16575H1.18258L1.13751 6.01766L1.09267 6.16575H0.946545L1.06489 6.255L1.01895 6.402ZM1.80536 6.402L1.92414 6.31056L2.04292 6.402L1.99698 6.255L2.11511 6.16575H1.96876L1.92392 6.01766L1.87886 6.16575H1.73273L1.8513 6.255L1.80536 6.402ZM2.67292 6.402L2.79126 6.31056L2.91026 6.402L2.86345 6.255L2.98245 6.16575H2.83655L2.79126 6.01766L2.7462 6.16575H2.60008L2.71842 6.255L2.67292 6.402ZM3.53283 6.402L3.65226 6.31056L3.77126 6.402L3.72533 6.255L3.84323 6.16575H3.69733L3.65205 6.01766L3.6072 6.16575H3.46108L3.57942 6.255L3.53283 6.402ZM4.39689 6.402L4.51633 6.31056L4.63533 6.402L4.58917 6.255L4.70773 6.16575H4.56183L4.51633 6.01766L4.47126 6.16575H4.32514L4.44348 6.255L4.39689 6.402ZM4.88558 6.01766L5.00436 5.92731L5.12314 6.01766L5.0772 5.87087L5.19555 5.78075L5.04876 5.78119L5.00414 5.63331L4.95908 5.78119L4.81251 5.78075L4.93151 5.87087L4.88558 6.01766Z" fill="white"/>
</svg>
