<svg width="28" height="24" viewBox="0 0 28 24" fill="none" xmlns="http://www.w3.org/2000/svg">
  <path
    d="M25.8749 11.6142H22.9049C22.9049 5.46939 17.9811 0.488281 11.9068 0.488281C5.90778 0.488281 1.03049 5.34745 0.91112 11.387C0.787625 17.6301 6.57741 23.0513 12.7495 23.0513H13.5259C18.9673 23.0513 26.2604 18.7421 27.3999 13.4918C27.6103 12.524 26.8547 11.6142 25.8749 11.6142ZM7.4932 11.888C7.4932 12.7097 6.82882 13.3818 6.01653 13.3818C5.20424 13.3818 4.5399 12.7094 4.5399 11.888V9.47135C4.5399 8.64965 5.20424 7.97755 6.01653 7.97755C6.82882 7.97755 7.4932 8.64965 7.4932 9.47135V11.888ZM12.6206 11.888C12.6206 12.7097 11.9563 13.3818 11.1441 13.3818C10.3317 13.3818 9.66744 12.7094 9.66744 11.888V9.47135C9.66744 8.64965 10.332 7.97755 11.1441 7.97755C11.9563 7.97755 12.6206 8.64965 12.6206 9.47135V11.888Z"
    fill="url(#paint0_linear_5486_135444)"/>
  <defs>
    <linearGradient id="paint0_linear_5486_135444" x1="14.1722" y1="0.488283" x2="14.1722" y2="23.0513"
                    gradientUnits="userSpaceOnUse">
      <stop stop-color="white" offset=""/>
      <stop offset="1" stop-color="white" stop-opacity="0.82"/>
    </linearGradient>
  </defs>
</svg>
