<svg width="13" height="17" viewBox="0 0 13 17" fill="none" xmlns="http://www.w3.org/2000/svg">
<path d="M12.1 15.5315V15.5315V2.87503C12.1 2.35194 11.8968 1.84983 11.5345 1.47927C11.1721 1.10864 10.6802 0.9 10.1667 0.9H2.83333C2.31985 0.9 1.82786 1.10864 1.46547 1.47927C1.10316 1.84983 0.9 2.35194 0.9 2.87503L0.9 15.5315L0.9 15.5315C0.900052 15.634 0.927261 15.7346 0.978908 15.8228C1.03056 15.9109 1.10481 15.9834 1.19397 16.0322C1.28315 16.081 1.38379 16.1043 1.48512 16.0993C1.58481 16.0945 1.68123 16.0625 1.76443 16.0069L6.5 13.3966L11.2356 16.0069C11.3188 16.0625 11.4152 16.0945 11.5149 16.0993C11.6162 16.1043 11.7168 16.081 11.806 16.0322C11.8952 15.9834 11.9694 15.9109 12.0211 15.8228C12.0727 15.7346 12.0999 15.634 12.1 15.5315ZM2.25665 2.28202C2.40999 2.12519 2.61747 2.03752 2.83333 2.03752H10.1667C10.3825 2.03752 10.59 2.12519 10.7433 2.28202C10.8968 2.43892 10.9833 2.65219 10.9833 2.87503V14.4886L6.80564 12.2432C6.71494 12.1828 6.60875 12.1504 6.5 12.1504C6.39125 12.1504 6.28506 12.1828 6.19436 12.2432L2.01667 14.4886V2.87503C2.01667 2.65219 2.10324 2.43892 2.25665 2.28202Z" fill="black" stroke="black" stroke-width="0.2"/>
</svg>
