<svg width="13" height="15" viewBox="0 0 13 15" fill="none" xmlns="http://www.w3.org/2000/svg">
<path d="M2.88889 7.5H4.33333V9H2.88889V7.5ZM13 3V13.5C13 13.8978 12.8478 14.2794 12.5769 14.5607C12.306 14.842 11.9386 15 11.5556 15H1.44444C1.06135 15 0.693954 14.842 0.423068 14.5607C0.152182 14.2794 0 13.8978 0 13.5V3C0 2.60218 0.152182 2.22064 0.423068 1.93934C0.693954 1.65804 1.06135 1.5 1.44444 1.5H2.16667V0H3.61111V1.5H9.38889V0H10.8333V1.5H11.5556C11.9386 1.5 12.306 1.65804 12.5769 1.93934C12.8478 2.22064 13 2.60218 13 3ZM1.44444 4.5H11.5556V3H1.44444V4.5ZM11.5556 13.5V6H1.44444V13.5H11.5556ZM8.66667 9V7.5H10.1111V9H8.66667ZM5.77778 9V7.5H7.22222V9H5.77778ZM2.88889 10.5H4.33333V12H2.88889V10.5ZM8.66667 12V10.5H10.1111V12H8.66667ZM5.77778 12V10.5H7.22222V12H5.77778Z" fill="black"/>
</svg>
