<svg width="9" height="15" viewBox="0 0 9 15" fill="none" xmlns="http://www.w3.org/2000/svg">
<path d="M3.85575 11.4617V7.94854C2.65342 7.63558 1.76999 7.16323 1.20546 6.53149C0.647238 5.89431 0.368104 5.12295 0.368104 4.21743C0.368104 3.30071 0.684044 2.53213 1.31598 1.91167C1.95394 1.28563 2.80058 0.925089 3.85575 0.830063V0H5.19013V0.830063C6.16561 0.936272 6.94172 1.24091 7.51831 1.74398C8.09505 2.24147 8.46311 2.90944 8.62263 3.74789L6.29445 4.02458C6.15339 3.365 5.78519 2.91782 5.19013 2.68305V5.96136C6.66251 6.3248 7.66562 6.79701 8.19931 7.37841C8.73301 7.9541 9 8.69476 9 9.60024C9 10.612 8.66248 11.4645 7.98773 12.1576C7.31894 12.8506 6.3865 13.2756 5.19013 13.432V15H3.85575V13.4739C2.79447 13.3565 1.93257 12.996 1.26988 12.3923C0.607363 11.7887 0.184044 10.9362 0 9.83502L2.40184 9.60024C2.5 10.0474 2.6841 10.4331 2.954 10.7573C3.2239 11.0816 3.52448 11.3163 3.85575 11.4617ZM3.85575 2.65789C3.4938 2.76969 3.20543 2.95974 2.99079 3.22805C2.776 3.49636 2.66868 3.7926 2.66868 4.11681C2.66868 4.41306 2.76684 4.68975 2.96316 4.94687C3.15948 5.19842 3.45701 5.40249 3.85575 5.55897V2.65789ZM5.19013 11.5791C5.65024 11.5008 6.02455 11.308 6.31278 11.0005C6.60114 10.6875 6.7454 10.3214 6.7454 9.9022C6.7454 9.52763 6.62266 9.20619 6.3772 8.93789C6.13798 8.66402 5.74229 8.45441 5.19013 8.30906V11.5791Z" fill="black"/>
</svg>
