<svg width="17" height="16" viewBox="0 0 17 16" fill="none" xmlns="http://www.w3.org/2000/svg">
<path d="M8.50018 3.70796L8.42861 3.63473L7.7564 2.94686L7.81881 2.88587L7.7564 2.94686C6.23109 1.38597 3.41783 1.91967 2.4014 3.89519C1.92808 4.81687 1.81268 6.16119 2.69594 7.89678C3.54324 9.56087 5.30751 11.5646 8.50013 13.7542C11.6927 11.5647 13.456 9.56094 14.3043 7.89682C15.1876 6.16021 15.0731 4.81685 14.5989 3.89525L14.6878 3.8495L14.5989 3.89525C13.5825 1.91966 10.7692 1.38507 9.24391 2.94588L8.50018 3.70796ZM8.50018 3.70796L8.5717 3.63468L9.24386 2.94593L8.50018 3.70796ZM8.44517 15.0835L8.50013 15.1197L8.55509 15.0835C12.157 12.7139 14.2454 10.4678 15.2782 8.48629C16.3122 6.50251 16.2885 4.78175 15.6609 3.47886C14.4116 0.885272 10.7824 -0.00885081 8.59812 1.99355C8.56473 2.02324 8.53201 2.05366 8.49999 2.08479C8.46792 2.05355 8.43542 2.02299 8.40268 1.99311C6.21804 -0.0085268 2.58825 0.885986 1.33896 3.47979C0.711434 4.78268 0.687851 6.50334 1.72196 8.48694C2.75485 10.4682 4.84331 12.7141 8.44517 15.0835Z" fill="black" stroke="black" stroke-width="0.2"/>
</svg>
