<svg width="13" height="13" viewBox="0 0 13 13" fill="none" xmlns="http://www.w3.org/2000/svg">
<path d="M5.27048 4.26944e-09C6.25293 -3.95314e-05 7.21584 0.274501 8.05054 0.792641C8.88524 1.31078 9.55851 2.05189 9.99437 2.93234C10.4302 3.81279 10.6113 4.79754 10.5172 5.77544C10.4231 6.75334 10.0575 7.68548 9.46178 8.46666L12.795 11.8012C12.921 11.9276 12.9942 12.0973 12.9997 12.2758C13.0051 12.4543 12.9424 12.6281 12.8243 12.762C12.7063 12.8959 12.5416 12.9799 12.3639 12.9968C12.1861 13.0138 12.0086 12.9624 11.8674 12.8532L11.8013 12.7949L8.46666 9.46175C7.80114 9.9692 7.02434 10.3109 6.20055 10.4585C5.37675 10.6061 4.52964 10.5555 3.72931 10.3107C2.92898 10.066 2.19844 9.63417 1.59813 9.05103C0.997833 8.46789 0.54503 7.75018 0.277194 6.9573C0.00935858 6.16442 -0.0658102 5.31916 0.0579079 4.49146C0.181626 3.66376 0.500674 2.87742 0.988652 2.1975C1.47663 1.51758 2.11951 0.963643 2.86409 0.581511C3.60867 0.199379 4.43356 4.4171e-05 5.27048 4.26944e-09ZM5.27048 1.40549C4.24536 1.40549 3.26222 1.8127 2.53735 2.53755C1.81248 3.26239 1.40526 4.2455 1.40526 5.27058C1.40526 6.29567 1.81248 7.27877 2.53735 8.00362C3.26222 8.72846 4.24536 9.13568 5.27048 9.13568C6.2956 9.13568 7.27873 8.72846 8.0036 8.00362C8.72847 7.27877 9.1357 6.29567 9.1357 5.27058C9.1357 4.2455 8.72847 3.26239 8.0036 2.53755C7.27873 1.8127 6.2956 1.40549 5.27048 1.40549Z" fill="black"/>
</svg>
