<svg width="27" height="28" viewBox="0 0 27 28" fill="none" xmlns="http://www.w3.org/2000/svg">
<g clip-path="url(#clip0_4442_128708)">
<path d="M13.5 7.25C12.6656 7.25 11.85 7.49743 11.1562 7.96099C10.4624 8.42455 9.92169 9.08343 9.60239 9.8543C9.28308 10.6252 9.19953 11.4734 9.36231 12.2918C9.5251 13.1101 9.92689 13.8619 10.5169 14.4519C11.1069 15.0419 11.8586 15.4437 12.677 15.6064C13.4953 15.7692 14.3436 15.6857 15.1144 15.3664C15.8853 15.0471 16.5442 14.5063 17.0078 13.8126C17.4713 13.1188 17.7188 12.3031 17.7188 11.4687C17.7188 10.3499 17.2743 9.27681 16.4831 8.48564C15.6919 7.69447 14.6189 7.25 13.5 7.25ZM13.5 14C12.9994 14 12.51 13.8515 12.0937 13.5734C11.6775 13.2953 11.353 12.8999 11.1614 12.4374C10.9698 11.9749 10.9197 11.4659 11.0174 10.9749C11.1151 10.4839 11.3561 10.0329 11.7101 9.67889C12.0641 9.32488 12.5152 9.08381 13.0062 8.98614C13.4972 8.88847 14.0061 8.9386 14.4687 9.13018C14.9312 9.32176 15.3265 9.6462 15.6047 10.0625C15.8828 10.4787 16.0313 10.9681 16.0313 11.4687C16.0306 12.1399 15.7637 12.7833 15.2891 13.2579C14.8146 13.7324 14.1711 13.9993 13.5 14Z" fill="black"/>
<path d="M6.75684 21.5313C7 22 8.43759 22.7556 8.43759 22.7556L13.5001 24.1254L18.5626 22.7556C18.5626 22.7556 19.5 22.5 20.2433 21.5313C14.9765 21.5313 12.0236 21.5313 6.75684 21.5313ZM8.43759 22.7556V21.5937C8.43826 20.9226 8.70516 20.2792 9.17971 19.8046C9.65427 19.3301 10.2977 19.0632 10.9688 19.0625H16.0313C16.7025 19.0632 17.3459 19.3301 17.8205 19.8046C18.295 20.2792 18.5619 20.9226 18.5626 21.5937V22.7556L13.5001 24.1254L8.43759 22.7556ZM20.2433 21.5313C20.2265 20.4246 19.7756 19.3688 18.9878 18.5913C18.1999 17.8139 17.1382 17.3771 16.0313 17.375H10.9688C9.86199 17.3771 8.80026 17.8139 8.01241 18.5913C7.22456 19.3688 6.77365 20.4246 6.75684 21.5313C12.0236 21.5313 14.9765 21.5313 20.2433 21.5313Z" fill="black"/>
</g>
<defs>
<clipPath id="clip0_4442_128708">
<rect width="27" height="27" fill="white" transform="translate(0 0.5)"/>
</clipPath>
</defs>
</svg>
