<svg width="20" height="20" viewBox="0 0 20 20" fill="none" xmlns="http://www.w3.org/2000/svg">
<path d="M4.93414 18.4996H1.29031V6.81602H4.93414V18.4996ZM3.11027 5.22227C1.94509 5.22227 1 4.26133 1 3.10117C1 2.54391 1.22233 2.00947 1.61808 1.61542C2.01384 1.22137 2.55059 1 3.11027 1C3.66995 1 4.2067 1.22137 4.60245 1.61542C4.9982 2.00947 5.22054 2.54391 5.22054 3.10117C5.22054 4.26133 4.27505 5.22227 3.11027 5.22227ZM18.5718 18.4996H14.9358V12.8121C14.9358 11.4566 14.9084 9.71836 13.0414 9.71836C11.1469 9.71836 10.8565 11.191 10.8565 12.7145V18.4996H7.21664V6.81602H10.7114V8.40977H10.7624C11.2489 7.4918 12.4372 6.52305 14.2101 6.52305C17.8978 6.52305 18.5758 8.94102 18.5758 12.0816V18.4996H18.5718Z" fill="#005BDA"/>
</svg>
