<svg width="30" height="50" viewBox="0 0 30 50" fill="none" xmlns="http://www.w3.org/2000/svg">
<g clip-path="url(#clip0_4442_129154)">
<g clip-path="url(#clip1_4442_129154)">
<path d="M29.9297 32.5476L30 47.0703C30 47.8885 29.7073 48.5817 29.1218 49.1499C28.5363 49.718 27.822 50.0021 26.9789 50.0021H3.02108C2.17799 50.0021 1.4637 49.718 0.87822 49.1499C0.29274 48.5817 0 47.8885 0 47.0703V32.5476C0 31.4567 0.468384 30.6158 1.40515 30.0249L14.4709 22.601C14.7772 22.4269 15.1525 22.4269 15.4589 22.601L28.5246 30.0249C29.4614 30.6158 29.9297 31.4567 29.9297 32.5476ZM14.4477 39.4612C14.7657 39.654 15.1644 39.6545 15.4828 39.4625L25.9336 33.1596C26.5891 32.7642 26.5754 31.8089 25.9088 31.4325L15.458 25.5306C15.1521 25.3578 14.7779 25.3583 14.4724 25.5318L4.08069 31.4337C3.41691 31.8106 3.40325 32.7623 4.05594 33.1582L14.4477 39.4612Z" fill="#005BDA"/>
</g>
<path d="M3 -0.535188C3 -1.23146 3.36212 -1.87762 3.956 -2.24108L13.956 -8.36107C14.5968 -8.75322 15.4032 -8.75322 16.044 -8.36107L26.044 -2.24108C26.6379 -1.87762 27 -1.23146 27 -0.535187V32.2846C27 32.9693 26.6498 33.6064 26.0717 33.9733L16.0717 40.3198C15.4175 40.735 14.5825 40.735 13.9283 40.3198L3.9283 33.9733C3.35023 33.6064 3 32.9693 3 32.2846V-0.535188Z" fill="url(#paint0_linear_4442_129154)"/>
</g>
<defs>
<linearGradient id="paint0_linear_4442_129154" x1="15" y1="0.608038" x2="15" y2="41.5664" gradientUnits="userSpaceOnUse">
<stop offset="0.34375" stop-color="#3FE3C9" stop-opacity="0.02"/>
<stop offset="0.479167" stop-color="#3FE3C8" stop-opacity="0.1"/>
<stop offset="0.552083" stop-color="#3FE3C8" stop-opacity="0.3"/>
<stop offset="0.681353" stop-color="#3FE3C8" stop-opacity="0.66"/>
<stop offset="0.844602" stop-color="#3FE3C8"/>
<stop offset="1" stop-color="#3FE3C8"/>
</linearGradient>
<clipPath id="clip0_4442_129154">
<rect width="30" height="50" fill="white"/>
</clipPath>
<clipPath id="clip1_4442_129154">
<rect y="21.0039" width="30" height="29" fill="white"/>
</clipPath>
</defs>
</svg>
