<svg width="20" height="20" viewBox="0 0 20 20" fill="none" xmlns="http://www.w3.org/2000/svg">
<path d="M11.2812 10.5C11.2812 13.5372 8.75625 16 5.64 16C4.90033 16.001 4.16771 15.8595 3.48396 15.5836C2.80022 15.3077 2.17875 14.9028 1.65502 14.3921C1.1313 13.8814 0.715587 13.2748 0.431617 12.607C0.147648 11.9392 0.000984258 11.2232 0 10.5C0 7.46156 2.525 5.00001 5.64 5.00001C6.37978 4.99888 7.11253 5.14026 7.79642 5.41607C8.48031 5.69188 9.10193 6.09671 9.62579 6.60745C10.1496 7.11818 10.5655 7.72482 10.8495 8.39271C11.1336 9.0606 11.2803 9.77666 11.2812 10.5ZM17.4688 10.5C17.4688 13.36 16.2062 15.6773 14.6488 15.6773C13.0912 15.6773 11.8288 13.3588 11.8288 10.5C11.8288 7.64 13.0912 5.32267 14.6488 5.32267C16.2062 5.32267 17.4688 7.64123 17.4688 10.5ZM20 10.5C20 13.0618 19.5562 15.1383 19.0075 15.1383C18.46 15.1383 18.0163 13.0606 18.0163 10.5C18.0163 7.93823 18.46 5.86167 19.0087 5.86167C19.5562 5.86167 20 7.93823 20 10.5Z" fill="#005BDA"/>
</svg>
