<svg width="20" height="20" viewBox="0 0 20 20" fill="none" xmlns="http://www.w3.org/2000/svg">
<g clip-path="url(#clip0_4442_129167)">
<path d="M18.4706 6.01477C18.4833 6.18633 18.4833 6.35793 18.4833 6.52949C18.4833 11.7623 14.3589 17.7917 6.82081 17.7917C4.49845 17.7917 2.3411 17.1422 0.526367 16.0148C0.856329 16.0515 1.17356 16.0638 1.51621 16.0638C3.43243 16.0638 5.19642 15.4388 6.60506 14.3726C4.80302 14.3359 3.29286 13.1962 2.77255 11.6275C3.02638 11.6643 3.28017 11.6888 3.54669 11.6888C3.9147 11.6888 4.28275 11.6397 4.62537 11.554C2.7472 11.1863 1.33852 9.59321 1.33852 7.66919V7.62019C1.88418 7.9143 2.51876 8.09812 3.1913 8.12261C2.08723 7.41181 1.36391 6.19859 1.36391 4.82603C1.36391 4.09075 1.56692 3.41673 1.92227 2.82849C3.94005 5.23045 6.97307 6.79905 10.3741 6.97065C10.3106 6.67653 10.2725 6.37019 10.2725 6.06381C10.2725 3.88241 12.1 2.10547 14.3715 2.10547C15.5517 2.10547 16.6177 2.58341 17.3665 3.35547C18.2928 3.18391 19.1812 2.85301 19.968 2.39959C19.6634 3.31873 19.0162 4.09079 18.166 4.58095C18.9909 4.49521 19.7903 4.27457 20.5264 3.96823C19.9681 4.75251 19.2701 5.45101 18.4706 6.01477Z" fill="#005BDA"/>
</g>
<defs>
<clipPath id="clip0_4442_129167">
<rect width="20" height="20" fill="white"/>
</clipPath>
</defs>
</svg>
