<svg width="858" height="487" viewBox="0 0 858 487" fill="none" xmlns="http://www.w3.org/2000/svg">
  <path
    d="M166.106 271.517L53.9625 252.054L0.670975 222.859L53.9625 271.517L123.937 291.443C131.506 307.508 147.848 344.549 152.668 364.198C157.487 383.846 196.073 399.571 214.764 404.977H292.152C301.729 421.66 321.162 455.025 322.274 455.025C323.386 455.025 368.46 476.342 390.858 487C424.223 483.447 491.787 475.137 495.124 470.317C498.46 465.498 529.879 439.887 545.171 427.684L586.414 455.025H674.461C686.046 445.911 709.217 425.553 709.217 417.026C709.217 406.368 791.239 315.54 791.239 306.272C791.239 297.004 769.923 204.787 769.923 195.518C769.923 188.104 784.134 91.4069 791.239 43.9852L857.969 -6.0625L791.239 5.98602H769.923L756.02 62.058L709.217 118.593L645.267 183.47C636.153 198.144 617.37 230.552 615.145 242.786C612.365 258.078 559.073 271.517 545.171 271.517C531.269 271.517 446.93 297.467 440.905 306.272C434.881 315.077 396.882 364.198 375.565 382.271C358.512 396.729 312.851 354.93 292.152 332.223L243.495 364.198L214.764 382.271L152.668 332.223L166.106 271.517Z"
    fill="#005BDA"/>
</svg>
