<svg width="786" height="412" viewBox="0 0 786 412" fill="none" xmlns="http://www.w3.org/2000/svg">
  <path
    d="M678.461 -19.5L745.191 -8.84169V15.2553L785.971 27.3039L773.922 69.9371L715.997 106.083L659.925 168.642V262.25L620.535 380.882L393.004 391.54L329.517 326.2L253.519 354.931L190.032 411.003L79.2788 391.54L0.5 411.003L71.4009 365.589L121.449 338.248L209.495 315.542H292.908L329.517 276.152L411.54 262.25L464.368 242.787C469.929 221.007 481.699 169.569 484.294 138.058C486.889 106.546 498.351 115.969 503.757 124.619L607.097 95.4243V69.9371L634.438 59.2788H715.997V39.3524L678.461 -19.5Z"
    fill="#3FE3C8"/>
</svg>
